<svg width="50" height="50" viewBox="0 0 50 50" fill="none" xmlns="http://www.w3.org/2000/svg">
<path d="M43.1443 19.2785V15.3798C43.1443 14.2752 42.2489 13.3798 41.1443 13.3798H6.5C4.29087 13.3798 2.5 15.1706 2.5 17.3798V42.7959C2.5 45.005 4.29086 46.7959 6.5 46.7959H44.3983C45.5029 46.7959 46.3983 45.9004 46.3983 44.7959V38.7286" stroke="#3D56D6" stroke-width="1.6" stroke-linecap="round" stroke-linejoin="round"/>
<path d="M33.0721 33.1961C33.0721 30.4064 35.3336 28.1448 38.1233 28.1448H46.75C47.8546 28.1448 48.75 29.0403 48.75 30.1448V36.2474C48.75 37.3519 47.8546 38.2474 46.75 38.2474H38.1233C35.3336 38.2474 33.0721 35.9858 33.0721 33.1961V33.1961Z" stroke="#3D56D6" stroke-width="1.6" stroke-linecap="round" stroke-linejoin="round"/>
<path d="M9.96765 19.7506L32.0069 7.16507C32.8831 6.65924 34.0192 6.9869 34.5446 7.89691L41.3727 19.8612" stroke="#3D56D6" stroke-width="1.6" stroke-linecap="round" stroke-linejoin="round"/>
<ellipse cx="11.1229" cy="6.38559" rx="3.91949" ry="3.88559" fill="#E0E5FF" stroke="#3D56D6" stroke-width="1.6" stroke-linecap="round" stroke-linejoin="round"/>
<ellipse cx="26.017" cy="13.3797" rx="3.91949" ry="3.88559" fill="#E0E5FF" stroke="#3D56D6" stroke-width="1.6" stroke-linecap="round" stroke-linejoin="round"/>
<path d="M45.6144 27.3678V22.7532C45.6144 21.1938 44.3503 19.9297 42.7909 19.9297H5.94156C4.04084 19.9297 2.5 18.3888 2.5 16.4881V16.4881" stroke="#3D56D6" stroke-width="1.6" stroke-linecap="round" stroke-linejoin="round"/>
</svg>
