<svg width="24" height="24" viewBox="0 0 24 24" fill="none" xmlns="http://www.w3.org/2000/svg">
<g id="&#229;&#133;&#179;&#233;&#151;&#173;">
<path id="Rectangle" fill-rule="evenodd" clip-rule="evenodd" d="M1.01823 22.8364C0.455878 22.2741 0.455879 21.3623 1.01823 20.7999L20.7999 1.01825C21.3623 0.455893 22.274 0.455892 22.8364 1.01825L22.9817 1.1636C23.5441 1.72595 23.5441 2.63771 22.9817 3.20006L3.20005 22.9818C2.6377 23.5441 1.72594 23.5441 1.16358 22.9818L1.01823 22.8364Z" fill="#666666"/>
<path id="Rectangle Copy 2" fill-rule="evenodd" clip-rule="evenodd" d="M1.16414 1.01823C1.72649 0.455878 2.63825 0.455879 3.20061 1.01823L22.9823 20.7999C23.5447 21.3623 23.5447 22.274 22.9823 22.8364L22.837 22.9817C22.2746 23.5441 21.3628 23.5441 20.8005 22.9817L1.01879 3.20005C0.456436 2.6377 0.456435 1.72594 1.01879 1.16358L1.16414 1.01823Z" fill="#666666"/>
</g>
</svg>
