<svg width="30" height="26" viewBox="0 0 30 26" fill="none" xmlns="http://www.w3.org/2000/svg">
<path d="M10.177 19.035L29.3795 9.84209L29.4842 13.6951L10.177 22.9718V19.035Z" fill="#23B49A"/>
<path d="M14.2394 17.0875L20.375 20.0611L16.3416 22.0085L10.177 19.0559L14.2394 17.0875Z" fill="#2CCDB0"/>
<path d="M20.3751 23.9769L20.3751 20.0611L16.3418 22.0085L16.3127 25.9454L20.3751 23.9769Z" fill="#46EFD1"/>
<path d="M6.24016 17.1503L25.4217 7.91553L29.3795 9.84206L10.177 19.0559L6.24016 17.1503Z" fill="#2CCDB0"/>
<path d="M6.24014 17.1294L16.3335 21.9666V25.9035L6.24014 21.0662V17.1294Z" fill="#177867"/>
<path d="M0 7.62236L10.0933 12.4596V16.3965L0 11.5592V7.62236Z" fill="#131766"/>
<path d="M18.3021 9.65361L21.2337 10.9938L21.2756 3.30862L18.3021 1.92654V9.65361Z" fill="#1B1F6D"/>
<path d="M10.0934 12.4596L29.2959 3.26672L29.4006 7.11979L10.0934 16.3965V12.4596Z" fill="#262C96"/>
<path d="M6.15656 10.575L25.3381 1.34019L29.2959 3.26673L10.0934 12.4806L6.15656 10.575Z" fill="#4950D4"/>
<path d="M4.10435 5.69583L10.198 8.62751L6.16467 10.575L0 7.62236L4.10435 5.69583Z" fill="#4950D4"/>
<path d="M22.4064 0L25.3381 1.3402L21.2756 3.30861L18.3021 1.92653L22.4064 0Z" fill="#4950D4"/>
</svg>
