<svg width="24" height="24" viewBox="0 0 24 24" fill="none" xmlns="http://www.w3.org/2000/svg">
<path d="M0.8 12C0.8 5.81441 5.81441 0.8 12 0.8C18.1856 0.8 23.2 5.81441 23.2 12C23.2 18.1856 18.1856 23.2 12 23.2C5.81441 23.2 0.8 18.1856 0.8 12Z" stroke="#1ED0AC" stroke-width="1.6"/>
<path d="M11.3757 17.25C11.3757 17.25 13.1091 14.207 15.1036 11.5737C16.6429 9.54203 18.5625 7.76287 18.5625 7.76287L18.1625 6.75C18.1625 6.75 15.8855 8.18957 14.0417 9.95544C12.1702 11.7472 10.7327 13.8703 10.7327 13.8703L7.90585 11.4615L6.75 12.5806L11.3757 17.25Z" fill="#1ED0AC"/>
</svg>
