<svg width="24" height="24" viewBox="0 0 24 24" fill="none" xmlns="http://www.w3.org/2000/svg">
<path d="M0.8 12C0.8 5.81441 5.81441 0.8 12 0.8C18.1856 0.8 23.2 5.81441 23.2 12C23.2 18.1856 18.1856 23.2 12 23.2C5.81441 23.2 0.8 18.1856 0.8 12Z" stroke="#D84B79" stroke-width="1.6"/>
<path fill-rule="evenodd" clip-rule="evenodd" d="M10.914 15L10.5 6H12.75L12.336 15H10.914ZM10.8367 16.8147C11.051 16.5944 11.3112 16.5 11.6173 16.5C11.9388 16.5 12.2143 16.5944 12.4286 16.8147C12.6429 17.0192 12.75 17.2867 12.75 17.6171C12.75 17.9476 12.6429 18.215 12.4286 18.4353C12.199 18.6399 11.9235 18.75 11.6173 18.75C11.3112 18.75 11.051 18.6399 10.8367 18.4196C10.6071 18.1993 10.5 17.9318 10.5 17.6171C10.5 17.2867 10.6071 17.0192 10.8367 16.8147Z" fill="#D84B79"/>
</svg>
