<svg width="28" height="28" viewBox="0 0 28 28" fill="none" xmlns="http://www.w3.org/2000/svg">
<path fill-rule="evenodd" clip-rule="evenodd" d="M3.14772 0C1.40918 0 0 1.55028 0 3.46269V24.5373C0 26.4497 1.40918 28 3.14772 28H24.8523C26.5907 28 28 26.4497 28 24.5373V3.46269C28 1.55028 26.5907 0 24.8523 0H3.14772Z" fill="white"/>
<mask id="mask0" mask-type="alpha" maskUnits="userSpaceOnUse" x="0" y="0" width="28" height="28">
<path fill-rule="evenodd" clip-rule="evenodd" d="M3.14772 0C1.40918 0 0 1.55028 0 3.46269V24.5373C0 26.4497 1.40918 28 3.14772 28H24.8523C26.5907 28 28 26.4497 28 24.5373V3.46269C28 1.55028 26.5907 0 24.8523 0H3.14772Z" fill="white"/>
</mask>
<g mask="url(#mask0)">
<path fill-rule="evenodd" clip-rule="evenodd" d="M23.9903 22.0529L37.2343 19.6596L22.0428 38.1277L23.9903 22.0529ZM22.3406 21.249L20.2915 38.1276L9.23417 10.4255L22.3406 21.249ZM23.0013 19.0638L10.4255 8.93616L30.9787 12.6088L23.0013 19.0638ZM33.1759 13.4043L37.5317 17.5168L25.6168 19.6596L33.1759 13.4043ZM33.74 11.173L5.36182 5.95746L20.2974 43.4894L41.1065 18.1679L33.74 11.173Z" fill="#135DCD"/>
</g>
</svg>
