<svg width="50" height="50" viewBox="0 0 50 50" fill="none" xmlns="http://www.w3.org/2000/svg">
<path fill-rule="evenodd" clip-rule="evenodd" d="M5.62093 0C2.5164 0 0 2.76835 0 6.18337V43.8166C0 47.2316 2.5164 50 5.62093 50H44.3791C47.4833 50 50 47.2316 50 43.8166V6.18337C50 2.76835 47.4833 0 44.3791 0H5.62093Z" fill="#135DCD"/>
<mask id="mask0" mask-type="alpha" maskUnits="userSpaceOnUse" x="0" y="0" width="50" height="50">
<path fill-rule="evenodd" clip-rule="evenodd" d="M5.62093 0C2.5164 0 0 2.76835 0 6.18337V43.8166C0 47.2316 2.5164 50 5.62093 50H44.3791C47.4833 50 50 47.2316 50 43.8166V6.18337C50 2.76835 47.4833 0 44.3791 0H5.62093Z" fill="white"/>
</mask>
<g mask="url(#mask0)">
<path fill-rule="evenodd" clip-rule="evenodd" d="M42.8392 39.3803L66.4893 35.1064L39.3616 68.0851L42.8392 39.3803ZM39.8936 37.9446L36.2347 68.0851L16.4893 18.617L39.8936 37.9446ZM41.0737 34.0425L18.6169 15.9574L55.319 22.5157L41.0737 34.0425ZM59.2429 23.9362L67.0213 31.28L45.7447 35.1064L59.2429 23.9362ZM60.2499 19.9517L9.57455 10.6383L36.2453 77.6596L73.4043 32.4426L60.2499 19.9517Z" fill="white"/>
</g>
</svg>
