<svg width="12" height="12" viewBox="0 0 12 12" fill="none" xmlns="http://www.w3.org/2000/svg">
<g id="&#229;&#133;&#179;&#233;&#151;&#173;">
<path id="Rectangle" fill-rule="evenodd" clip-rule="evenodd" d="M0.454547 11.5387C0.203508 11.2838 0.203508 10.8705 0.454547 10.6156L10.4537 0.462336C10.7048 0.207428 11.1118 0.207428 11.3628 0.462336C11.6139 0.717244 11.6139 1.13053 11.3628 1.38544L1.36364 11.5387C1.1126 11.7936 0.705587 11.7936 0.454547 11.5387Z" fill="#0F134F"/>
<path id="Rectangle Copy 2" fill-rule="evenodd" clip-rule="evenodd" d="M0.637364 0.461552C0.888403 0.206644 1.29542 0.206644 1.54646 0.461552L11.5456 10.6148C11.7967 10.8697 11.7967 11.283 11.5456 11.5379C11.2946 11.7928 10.8876 11.7928 10.6365 11.5379L0.637364 1.38466C0.386324 1.12975 0.386324 0.71646 0.637364 0.461552Z" fill="#0F134F"/>
</g>
</svg>
