<svg width="22" height="22" viewBox="0 0 22 22" fill="none" xmlns="http://www.w3.org/2000/svg">
<path d="M3 0H15C15.7956 0 16.5587 0.31607 17.1213 0.87868C17.6839 1.44129 18 2.20435 18 3V15C18 15.7956 17.6839 16.5587 17.1213 17.1213C16.5587 17.6839 15.7956 18 15 18H3C2.20435 18 1.44129 17.6839 0.87868 17.1213C0.31607 16.5587 0 15.7956 0 15V3C0 2.20435 0.31607 1.44129 0.87868 0.87868C1.44129 0.31607 2.20435 0 3 0ZM3 1.5C2.60218 1.5 2.22064 1.65804 1.93934 1.93934C1.65804 2.22064 1.5 2.60218 1.5 3V15C1.5 15.3978 1.65804 15.7794 1.93934 16.0607C2.22064 16.342 2.60218 16.5 3 16.5H15C15.3978 16.5 15.7794 16.342 16.0607 16.0607C16.342 15.7794 16.5 15.3978 16.5 15V3C16.5 2.60218 16.342 2.22064 16.0607 1.93934C15.7794 1.65804 15.3978 1.5 15 1.5H3ZM16.5 11.25V12.75H13C12.0054 12.75 11.0516 12.3549 10.3484 11.6517C9.64509 10.9484 9.25 9.99456 9.25 9C9.25 8.00544 9.64509 7.05161 10.3484 6.34835C11.0516 5.64509 12.0054 5.25 13 5.25H16.5V6.75H13C12.4033 6.75 11.831 6.98705 11.409 7.40901C10.9871 7.83097 10.75 8.40326 10.75 9C10.75 9.59674 10.9871 10.169 11.409 10.591C11.831 11.0129 12.4033 11.25 13 11.25H16.5ZM14 10C13.7348 10 13.4804 9.89464 13.2929 9.70711C13.1054 9.51957 13 9.26522 13 9C13 8.73478 13.1054 8.48043 13.2929 8.29289C13.4804 8.10536 13.7348 8 14 8C14.2652 8 14.5196 8.10536 14.7071 8.29289C14.8946 8.48043 15 8.73478 15 9C15 9.26522 14.8946 9.51957 14.7071 9.70711C14.5196 9.89464 14.2652 10 14 10Z" fill="white"/>
<path fill-rule="evenodd" clip-rule="evenodd" d="M12 17C12 14.2386 14.2386 12 17 12C19.7614 12 22 14.2386 22 17C22 19.7614 19.7614 22 17 22C14.2386 22 12 19.7614 12 17Z" fill="#1DD0AC"/>
<path d="M16.9893 19.2311L16.8571 19.111L14.8991 17.3322L14.7744 17.2189L14.9015 17.1081L15.3907 16.6818L15.4832 16.6012L15.5805 16.6758L16.6591 17.503C16.6646 17.4961 16.6703 17.489 16.6763 17.4816C16.7468 17.3937 16.849 17.2697 16.9761 17.1241C17.23 16.8334 17.5852 16.455 17.9885 16.1075L16.9893 19.2311ZM16.9893 19.2311L17.0847 19.0802L17.0847 19.0802L17.0848 19.0801L17.0852 19.0795L17.0867 19.0771L17.0928 19.0675L17.1172 19.0295C17.1387 18.9963 17.1704 18.9475 17.2111 18.8858C17.2925 18.7623 17.4098 18.5871 17.5535 18.3807C17.8411 17.9674 18.2326 17.4309 18.6507 16.9342C18.9712 16.5535 19.3325 16.1951 19.6148 15.931C19.7557 15.7992 19.8764 15.6914 19.9617 15.6167C20.0044 15.5793 20.0381 15.5502 20.0612 15.5306L20.0874 15.5083L20.094 15.5028L20.0956 15.5014L20.096 15.5011L20.0961 15.501M16.9893 19.2311L20.0961 15.501M20.0961 15.501L20.0961 15.501L20.1827 15.4288L20.1374 15.3256L19.968 14.9397L19.9012 14.7873L19.7565 14.8696L19.8307 15L19.7565 14.8696L19.7564 14.8697L19.7562 14.8698L19.7556 14.8701L19.7533 14.8714L19.7447 14.8764L19.712 14.8954C19.6836 14.912 19.6423 14.9364 19.5904 14.9678C19.4866 15.0305 19.3402 15.121 19.1692 15.2327C18.8279 15.4557 18.3857 15.7651 17.9885 16.1075L20.0961 15.501Z" fill="white" stroke="white" stroke-width="0.3"/>
</svg>
