<svg width="22" height="22" viewBox="0 0 22 22" fill="none" xmlns="http://www.w3.org/2000/svg">
<path d="M3 0H15C15.7956 0 16.5587 0.31607 17.1213 0.87868C17.6839 1.44129 18 2.20435 18 3V15C18 15.7956 17.6839 16.5587 17.1213 17.1213C16.5587 17.6839 15.7956 18 15 18H3C2.20435 18 1.44129 17.6839 0.87868 17.1213C0.31607 16.5587 0 15.7956 0 15V3C0 2.20435 0.31607 1.44129 0.87868 0.87868C1.44129 0.31607 2.20435 0 3 0ZM3 1.5C2.60218 1.5 2.22064 1.65804 1.93934 1.93934C1.65804 2.22064 1.5 2.60218 1.5 3V15C1.5 15.3978 1.65804 15.7794 1.93934 16.0607C2.22064 16.342 2.60218 16.5 3 16.5H15C15.3978 16.5 15.7794 16.342 16.0607 16.0607C16.342 15.7794 16.5 15.3978 16.5 15V3C16.5 2.60218 16.342 2.22064 16.0607 1.93934C15.7794 1.65804 15.3978 1.5 15 1.5H3ZM16.5 11.25V12.75H13C12.0054 12.75 11.0516 12.3549 10.3484 11.6517C9.64509 10.9484 9.25 9.99456 9.25 9C9.25 8.00544 9.64509 7.05161 10.3484 6.34835C11.0516 5.64509 12.0054 5.25 13 5.25H16.5V6.75H13C12.4033 6.75 11.831 6.98705 11.409 7.40901C10.9871 7.83097 10.75 8.40326 10.75 9C10.75 9.59674 10.9871 10.169 11.409 10.591C11.831 11.0129 12.4033 11.25 13 11.25H16.5ZM14 10C13.7348 10 13.4804 9.89464 13.2929 9.70711C13.1054 9.51957 13 9.26522 13 9C13 8.73478 13.1054 8.48043 13.2929 8.29289C13.4804 8.10536 13.7348 8 14 8C14.2652 8 14.5196 8.10536 14.7071 8.29289C14.8946 8.48043 15 8.73478 15 9C15 9.26522 14.8946 9.51957 14.7071 9.70711C14.5196 9.89464 14.2652 10 14 10Z" fill="white"/>
<path fill-rule="evenodd" clip-rule="evenodd" d="M12 17C12 14.2386 14.2386 12 17 12C19.7614 12 22 14.2386 22 17C22 19.7614 19.7614 22 17 22C14.2386 22 12 19.7614 12 17Z" fill="#D84B79"/>
<path fill-rule="evenodd" clip-rule="evenodd" d="M16.5475 17.5L16.375 14.5H17.3125L17.14 17.5H16.5475ZM16.5153 19.0061C16.6046 18.9143 16.713 18.875 16.8406 18.875C16.9745 18.875 17.0893 18.9143 17.1786 19.0061C17.2679 19.0913 17.3125 19.2028 17.3125 19.3405C17.3125 19.4781 17.2679 19.5896 17.1786 19.6814C17.0829 19.7666 16.9681 19.8125 16.8406 19.8125C16.713 19.8125 16.6046 19.7666 16.5153 19.6748C16.4196 19.583 16.375 19.4716 16.375 19.3405C16.375 19.2028 16.4196 19.0913 16.5153 19.0061Z" fill="white"/>
<path d="M16.375 14.5V14.2H16.0573L16.0755 14.5172L16.375 14.5ZM16.5475 17.5L16.248 17.5172L16.2643 17.8H16.5475V17.5ZM17.3125 14.5L17.612 14.5172L17.6302 14.2H17.3125V14.5ZM17.14 17.5V17.8H17.4232L17.4395 17.5172L17.14 17.5ZM16.5153 19.0061L16.7149 19.2301L16.7229 19.223L16.7303 19.2153L16.5153 19.0061ZM17.1786 19.0061L16.9634 19.2154L16.9714 19.2231L17.1786 19.0061ZM17.1786 19.6814L17.3781 19.9054L17.3861 19.8982L17.3936 19.8906L17.1786 19.6814ZM16.5153 19.6748L16.7305 19.4655L16.723 19.4583L16.5153 19.6748ZM16.0755 14.5172L16.248 17.5172L16.847 17.4828L16.6745 14.4828L16.0755 14.5172ZM17.3125 14.2H16.375V14.8H17.3125V14.2ZM17.4395 17.5172L17.612 14.5172L17.013 14.4828L16.8405 17.4828L17.4395 17.5172ZM16.5475 17.8H17.14V17.2H16.5475V17.8ZM16.8406 18.575C16.6432 18.575 16.4534 18.6395 16.3003 18.7969L16.7303 19.2153C16.7558 19.1892 16.7828 19.175 16.8406 19.175V18.575ZM17.3936 18.7969C17.2364 18.6354 17.0375 18.575 16.8406 18.575V19.175C16.9115 19.175 16.9421 19.1933 16.9635 19.2153L17.3936 18.7969ZM17.6125 19.3405C17.6125 19.1312 17.5414 18.9378 17.3857 18.7891L16.9714 19.2231C16.9943 19.2449 17.0125 19.2744 17.0125 19.3405H17.6125ZM17.3936 19.8906C17.5403 19.7398 17.6125 19.552 17.6125 19.3405H17.0125C17.0125 19.4043 16.9954 19.4394 16.9635 19.4722L17.3936 19.8906ZM16.8406 20.1125C17.0454 20.1125 17.2304 20.037 17.3781 19.9054L16.979 19.4574C16.9355 19.4962 16.8908 19.5125 16.8406 19.5125V20.1125ZM16.3003 19.884C16.4458 20.0336 16.6317 20.1125 16.8406 20.1125V19.5125C16.7944 19.5125 16.7634 19.4996 16.7303 19.4656L16.3003 19.884ZM16.075 19.3405C16.075 19.549 16.1499 19.74 16.3076 19.8913L16.723 19.4583C16.6893 19.4261 16.675 19.3942 16.675 19.3405H16.075ZM16.3157 18.7821C16.1472 18.9323 16.075 19.13 16.075 19.3405H16.675C16.675 19.2756 16.6921 19.2504 16.7149 19.2301L16.3157 18.7821Z" fill="white"/>
</svg>
